<svg aria-hidden="true" style="position:absolute;overflow:hidden" xmlns="http://www.w3.org/2000/svg"><defs><symbol id="icon-up" viewBox="0 0 32 32"><path d="M24.421 31.158c.842 0 .842-.842.842-.842V16c.842-.041 4.211 0 4.211 0 .376-.008.712-.092.856-.44s.065-.749-.198-1.018L16.658 1.068a.945.945 0 0 0-1.315 0L1.869 14.542c-.263.269-.341.669-.198 1.018s.479.433.856.44h4.211v14.357s0 .842.842.842c5.053 0 11.789-.041 16.842-.041z"/><path d="M7.763 30.184c4.971-.002 11.489-.051 16.473-.053V16a1.027 1.027 0 0 1 .974-1.027c.92-.045 3.416-.007 3.894 0L15.999 1.868 2.92 14.973h3.816c.567 0 1.027.46 1.027 1.027v14.184z"/><path d="M23.395 24.395c0-3.468-.031-7.752 0-8.211.184-2.711 3.553-1.027 2.711-2.711S16.001 3.368 16.001 3.368L6.79 12.683c6.685 2.474 12.884 6.075 16.605 11.711z"/></symbol></defs></svg>