<svg aria-hidden="true" style="position:absolute;overflow:hidden"  version="1.1" xmlns="http://www.w3.org/2000/svg" xmlns:xlink="http://www.w3.org/1999/xlink">
<defs>
<symbol id="icon-up" viewBox="0 0 32 32">
<path d="M24.421 31.158c0.842 0 0.842-0.842 0.842-0.842v-14.316c0.842-0.041 4.211 0 4.211 0 0.376-0.008 0.712-0.092 0.856-0.44s0.065-0.749-0.198-1.018l-13.474-13.474c-0.366-0.355-0.949-0.355-1.315 0l-13.474 13.474c-0.263 0.269-0.341 0.669-0.198 1.018s0.479 0.433 0.856 0.44h4.211v14.357s0 0.842 0.842 0.842c5.053 0 11.789-0.041 16.842-0.041z"></path>
<path d="M7.763 30.184c4.971-0.002 11.489-0.051 16.473-0.053v-14.131c-0.001-0.547 0.428-0.999 0.974-1.027 0.92-0.045 3.416-0.007 3.894 0l-13.105-13.105-13.079 13.105h3.816c0.567 0 1.027 0.46 1.027 1.027v14.184z"></path>
<path d="M23.395 24.395c0-3.468-0.031-7.752 0-8.211 0.184-2.711 3.553-1.027 2.711-2.711s-10.105-10.105-10.105-10.105l-9.211 9.315c6.685 2.474 12.884 6.075 16.605 11.711z"></path>
</symbol>
</defs>
</svg>
 

 